<?xml version="1.0" encoding="UTF-8" standalone="no"?>
<!-- Created with Inkscape (http://www.inkscape.org/) -->

<svg
   width="1280mm"
   height="640mm"
   viewBox="0 0 1280 640"
   version="1.1"
   id="svg5"
   xml:space="preserve"
   inkscape:version="1.2.2 (1:1.2.2+202212051552+b0a8486541)"
   sodipodi:docname="github-banner.svg"
   inkscape:export-filename="github-banner.png"
   inkscape:export-xdpi="25.4"
   inkscape:export-ydpi="25.4"
   xmlns:inkscape="http://www.inkscape.org/namespaces/inkscape"
   xmlns:sodipodi="http://sodipodi.sourceforge.net/DTD/sodipodi-0.dtd"
   xmlns="http://www.w3.org/2000/svg"
   xmlns:svg="http://www.w3.org/2000/svg"><sodipodi:namedview
     id="namedview7"
     pagecolor="#ffffff"
     bordercolor="#000000"
     borderopacity="0.25"
     inkscape:showpageshadow="2"
     inkscape:pageopacity="0.0"
     inkscape:pagecheckerboard="0"
     inkscape:deskcolor="#d1d1d1"
     inkscape:document-units="mm"
     showgrid="false"
     showguides="true"
     inkscape:zoom="0.13385974"
     inkscape:cx="2446.5907"
     inkscape:cy="818.02041"
     inkscape:window-width="1920"
     inkscape:window-height="1016"
     inkscape:window-x="0"
     inkscape:window-y="27"
     inkscape:window-maximized="1"
     inkscape:current-layer="g1236"><sodipodi:guide
       position="79.999998,438.3897"
       orientation="-1,0"
       id="guide132"
       inkscape:locked="false"
       inkscape:label=""
       inkscape:color="rgb(0,134,229)" /><sodipodi:guide
       position="751.09712,559.99998"
       orientation="0,1"
       id="guide184"
       inkscape:locked="false"
       inkscape:label=""
       inkscape:color="rgb(0,134,229)" /><sodipodi:guide
       position="1200,3.5440016"
       orientation="-1,0"
       id="guide186"
       inkscape:locked="false"
       inkscape:label=""
       inkscape:color="rgb(0,134,229)" /><sodipodi:guide
       position="808.41769,79.999998"
       orientation="0,1"
       id="guide188"
       inkscape:locked="false"
       inkscape:label=""
       inkscape:color="rgb(0,134,229)" /></sodipodi:namedview><defs
     id="defs2"><style
       id="style8560">.cls-1{fill:#e24329;}.cls-2{fill:#fc6d26;}.cls-3{fill:#fca326;}</style></defs><g
     inkscape:label="Layer 1"
     inkscape:groupmode="layer"
     id="layer1"><rect
       style="fill:#2c2ca0;stroke-width:0.366216;stroke-linecap:round;stroke-linejoin:round"
       id="rect1152"
       width="1280"
       height="640"
       x="5.3734794e-14"
       y="-9.4368957e-16" /><g
       id="g1236"
       transform="translate(0,-8.2790134)"><text
         xml:space="preserve"
         style="font-size:141.244px;line-height:0.9;word-spacing:0px;fill:#ffffff;stroke-width:17.7944;stroke-linecap:round;stroke-linejoin:round"
         x="559.82397"
         y="247.66193"
         id="text376"><tspan
           sodipodi:role="line"
           style="font-style:normal;font-variant:normal;font-weight:normal;font-stretch:normal;font-family:LetoSans;-inkscape-font-specification:'LetoSans, Normal';font-variant-ligatures:normal;font-variant-caps:normal;font-variant-numeric:normal;font-variant-east-asian:normal;letter-spacing:26.4583px;baseline-shift:baseline;fill:#ffffff;stroke-width:17.7944"
           x="559.82397"
           y="247.66193"
           id="tspan540"
           dy="0">GitLab</tspan><tspan
           sodipodi:role="line"
           style="font-style:normal;font-variant:normal;font-weight:normal;font-stretch:normal;font-family:LetoSans;-inkscape-font-specification:'LetoSans, Normal';font-variant-ligatures:normal;font-variant-caps:normal;font-variant-numeric:normal;font-variant-east-asian:normal;letter-spacing:13.2292px;baseline-shift:baseline;fill:#ffffff;stroke-width:17.7944"
           x="559.82397"
           y="379.97461"
           id="tspan1408">Runner</tspan><tspan
           sodipodi:role="line"
           style="font-style:normal;font-variant:normal;font-weight:normal;font-stretch:normal;font-family:LetoSans;-inkscape-font-specification:'LetoSans, Normal';font-variant-ligatures:normal;font-variant-caps:normal;font-variant-numeric:normal;font-variant-east-asian:normal;letter-spacing:-2.64583px;baseline-shift:baseline;fill:#ffffff;stroke-width:17.7944"
           x="559.82397"
           y="512.28729"
           id="tspan1412">Portable</tspan></text><g
         id="g3581"
         transform="matrix(0.36308924,0,0,0.36308924,129.06385,142.77039)"><path
           style="fill:#fc6d26;fill-opacity:1"
           d="m 132.19336,289.84961 -89.978516,19.57031 a 512,512 0 0 0 13.019531,431.56446 512,512 0 0 0 200.902345,213.2539 512,512 0 0 0 245.31445,68.45312 l -73.16015,-80.48632 a 439.64365,439.64365 0 0 1 -135.97657,-50.62891 439.64365,439.64365 0 0 1 -160.91992,-600.5664 439.64365,439.64365 0 0 1 0.79883,-1.16016 z"
           id="path813" /><path
           style="fill:#e24329;fill-opacity:1"
           d="M 960.25195,264.78711 926.9043,369.0918 A 439.64365,439.64365 0 0 1 892.88086,730.65625 439.64365,439.64365 0 0 1 509.44727,950.27148 l 62.58398,68.84962 a 512,512 0 0 0 383.51172,-252.28907 512,512 0 0 0 4.70898,-502.04492 z"
           id="path811" /><path
           style="fill:#fca326;fill-opacity:1"
           d="M 525.04492,-0.70703125 A 512,512 0 0 0 74.359375,246.52148 L 180.67773,223.40039 a 439.64365,439.64365 0 0 1 551.28125,-93.31055 439.64365,439.64365 0 0 1 161.44336,164.4043 l 28.58008,-89.39258 A 512,512 0 0 0 768.13672,67.427734 512,512 0 0 0 525.04492,-0.70703125 Z"
           id="Background (CHANGE THE COLOR)" /><g
           id="g8591"
           transform="matrix(0.93811285,0,0,0.93811285,35.795692,-50.158243)"><path
             class="cls-1"
             d="m 878.59341,545.64705 -1.079,-2.75743 -104.46257,-272.62573 a 27.214618,27.214618 0 0 0 -10.74997,-12.94793 27.97391,27.97391 0 0 0 -31.97018,1.7184 27.97391,27.97391 0 0 0 -9.27136,14.06688 L 650.52612,488.89997 H 364.9125 L 294.37829,273.10124 a 27.414431,27.414431 0 0 0 -9.27136,-14.10684 27.97391,27.97391 0 0 0 -31.97018,-1.7184 27.454394,27.454394 0 0 0 -10.74997,12.94792 l -104.66239,272.50585 -1.03903,2.75742 a 193.97908,193.97908 0 0 0 64.33999,224.19091 l 0.35967,0.27974 0.9591,0.67936 159.13159,119.16886 78.72657,59.58443 47.95527,36.20623 a 32.249921,32.249921 0 0 0 39.00363,0 l 47.95527,-36.20623 78.72657,-59.58443 160.09069,-119.88819 0.39963,-0.3197 a 194.05901,194.05901 0 0 0 64.26007,-223.95112 z"
             id="path8564"
             style="stroke-width:3.99627" /><path
             class="cls-2"
             d="m 878.59341,545.64705 -1.079,-2.75743 A 352.87089,352.87089 0 0 0 737.04542,606.03073 L 507.6194,779.50893 c 78.12714,59.10487 146.1437,110.45698 146.1437,110.45698 l 160.09069,-119.88818 0.39962,-0.31971 a 194.05901,194.05901 0 0 0 64.34,-224.11097 z"
             id="path8566"
             style="stroke-width:3.99627" /><path
             class="cls-3"
             d="m 361.47571,889.96591 78.72657,59.58443 47.95527,36.20623 a 32.249921,32.249921 0 0 0 39.00363,0 l 47.95527,-36.20623 78.72657,-59.58443 c 0,0 -68.09648,-51.51196 -146.22362,-110.45698 -78.12713,58.94502 -146.14369,110.45698 -146.14369,110.45698 z"
             id="path8568"
             style="stroke-width:3.99627" /><path
             class="cls-2"
             d="M 278.15342,606.03073 A 352.4313,352.4313 0 0 0 137.72439,542.72977 l -1.03903,2.75742 a 193.97908,193.97908 0 0 0 64.33999,224.19091 l 0.35967,0.27974 0.9591,0.67936 159.13159,119.16886 c 0,0 67.93663,-51.35211 146.14369,-110.45698 z"
             id="path8570"
             style="stroke-width:3.99627" /></g></g></g><text
       xml:space="preserve"
       style="font-size:3.175px;fill:#000000;stroke-width:0.4;stroke-linecap:round;stroke-linejoin:round"
       x="1408.921"
       y="266.84088"
       id="text536"><tspan
         sodipodi:role="line"
         id="tspan534"
         style="stroke-width:0.4"
         x="1408.921"
         y="266.84088"></tspan><tspan
         sodipodi:role="line"
         style="stroke-width:0.4"
         id="tspan538"
         x="1408.921"
         y="270.80963" /></text></g></svg>
