<?xml version="1.0" encoding="UTF-8" standalone="no"?>
<svg
   viewBox="0 0 1024 1024"
   version="1.1"
   id="svg1958"
   sodipodi:docname="icon2.svg"
   inkscape:version="1.3.2 (1:1.3.2+202311252150+091e20ef0f)"
   xml:space="preserve"
   inkscape:export-filename="appicon2_512.png"
   inkscape:export-xdpi="48"
   inkscape:export-ydpi="48"
   xmlns:inkscape="http://www.inkscape.org/namespaces/inkscape"
   xmlns:sodipodi="http://sodipodi.sourceforge.net/DTD/sodipodi-0.dtd"
   xmlns="http://www.w3.org/2000/svg"
   xmlns:svg="http://www.w3.org/2000/svg"><defs
     id="defs1962"><style
       id="style8560">.cls-1{fill:#e24329;}.cls-2{fill:#fc6d26;}.cls-3{fill:#fca326;}</style></defs><sodipodi:namedview
     id="namedview1960"
     pagecolor="#ffffff"
     bordercolor="#000000"
     borderopacity="0.25"
     inkscape:showpageshadow="2"
     inkscape:pageopacity="0.0"
     inkscape:pagecheckerboard="0"
     inkscape:deskcolor="#d1d1d1"
     showgrid="false"
     inkscape:zoom="0.48517716"
     inkscape:cx="725.50818"
     inkscape:cy="707.98881"
     inkscape:window-width="1920"
     inkscape:window-height="1131"
     inkscape:window-x="0"
     inkscape:window-y="32"
     inkscape:window-maximized="1"
     inkscape:current-layer="svg1958"
     showguides="true"
     inkscape:export-bgcolor="#ffffff00"><sodipodi:guide
       position="128,1023.5"
       orientation="1023.5,0"
       id="guide2343"
       inkscape:locked="false" /><sodipodi:guide
       position="896,0.5"
       orientation="-1023.5,0"
       id="guide2345"
       inkscape:locked="false" /><sodipodi:guide
       position="256,1023.5"
       orientation="1023.5,0"
       id="guide2347"
       inkscape:locked="false" /><sodipodi:guide
       position="768,1024"
       orientation="1024,0"
       id="guide2349"
       inkscape:locked="false" /><sodipodi:guide
       position="1024,768"
       orientation="0,-1024"
       id="guide2351"
       inkscape:locked="false" /><sodipodi:guide
       position="1024,256"
       orientation="0,-1024"
       id="guide2353"
       inkscape:locked="false" /></sodipodi:namedview><g
     id="g2"
     transform="matrix(0.84756513,0,0,0.84756513,0.11828457,-0.13056352)"
     style="stroke-width:1.17986"><path
       style="fill:#fc6d26;fill-opacity:1;stroke-width:1.17986"
       d="m 132.19336,289.84961 -89.978516,19.57031 a 512,512 0 0 0 13.019531,431.56446 512,512 0 0 0 200.902345,213.2539 512,512 0 0 0 245.31445,68.45312 l -73.16015,-80.48632 a 439.64365,439.64365 0 0 1 -135.97657,-50.62891 439.64365,439.64365 0 0 1 -160.91992,-600.5664 439.64365,439.64365 0 0 1 0.79883,-1.16016 z"
       id="path813" /><path
       style="fill:#e24329;fill-opacity:1;stroke-width:1.17986"
       d="M 960.25195,264.78711 926.9043,369.0918 A 439.64365,439.64365 0 0 1 892.88086,730.65625 439.64365,439.64365 0 0 1 509.44727,950.27148 l 62.58398,68.84962 a 512,512 0 0 0 383.51172,-252.28907 512,512 0 0 0 4.70898,-502.04492 z"
       id="path811" /><path
       style="fill:#fca326;fill-opacity:1;stroke-width:1.17986"
       d="M 525.04492,-0.70703125 A 512,512 0 0 0 74.359375,246.52148 L 180.67773,223.40039 a 439.64365,439.64365 0 0 1 551.28125,-93.31055 439.64365,439.64365 0 0 1 161.44336,164.4043 l 28.58008,-89.39258 A 512,512 0 0 0 768.13672,67.427734 512,512 0 0 0 525.04492,-0.70703125 Z"
       id="Background (CHANGE THE COLOR)" /><g
       id="g8591"
       transform="matrix(0.93811285,0,0,0.93811285,35.795692,-50.158243)"
       style="stroke-width:1.17986"><path
         class="cls-1"
         d="m 878.59341,545.64705 -1.079,-2.75743 -104.46257,-272.62573 a 27.214618,27.214618 0 0 0 -10.74997,-12.94793 27.97391,27.97391 0 0 0 -31.97018,1.7184 27.97391,27.97391 0 0 0 -9.27136,14.06688 L 650.52612,488.89997 H 364.9125 L 294.37829,273.10124 a 27.414431,27.414431 0 0 0 -9.27136,-14.10684 27.97391,27.97391 0 0 0 -31.97018,-1.7184 27.454394,27.454394 0 0 0 -10.74997,12.94792 l -104.66239,272.50585 -1.03903,2.75742 a 193.97908,193.97908 0 0 0 64.33999,224.19091 l 0.35967,0.27974 0.9591,0.67936 159.13159,119.16886 78.72657,59.58443 47.95527,36.20623 a 32.249921,32.249921 0 0 0 39.00363,0 l 47.95527,-36.20623 78.72657,-59.58443 160.09069,-119.88819 0.39963,-0.3197 a 194.05901,194.05901 0 0 0 64.26007,-223.95112 z"
         id="path8564"
         style="stroke-width:4.71502" /><path
         class="cls-2"
         d="m 878.59341,545.64705 -1.079,-2.75743 A 352.87089,352.87089 0 0 0 737.04542,606.03073 L 507.6194,779.50893 c 78.12714,59.10487 146.1437,110.45698 146.1437,110.45698 l 160.09069,-119.88818 0.39962,-0.31971 a 194.05901,194.05901 0 0 0 64.34,-224.11097 z"
         id="path8566"
         style="stroke-width:4.71502" /><path
         class="cls-3"
         d="m 361.47571,889.96591 78.72657,59.58443 47.95527,36.20623 a 32.249921,32.249921 0 0 0 39.00363,0 l 47.95527,-36.20623 78.72657,-59.58443 c 0,0 -68.09648,-51.51196 -146.22362,-110.45698 -78.12713,58.94502 -146.14369,110.45698 -146.14369,110.45698 z"
         id="path8568"
         style="stroke-width:4.71502" /><path
         class="cls-2"
         d="M 278.15342,606.03073 A 352.4313,352.4313 0 0 0 137.72439,542.72977 l -1.03903,2.75742 a 193.97908,193.97908 0 0 0 64.33999,224.19091 l 0.35967,0.27974 0.9591,0.67936 159.13159,119.16886 c 0,0 67.93663,-51.35211 146.14369,-110.45698 z"
         id="path8570"
         style="stroke-width:4.71502" /></g></g><g
     id="g6"
     style="stroke:#ffffff;stroke-opacity:0.99992806;stroke-width:60;stroke-dasharray:none"><path
       d="m 871.57678,573.83358 c 12.26193,0 22.16847,10.63197 22.16847,22.33899 0,12.98454 -9.90654,22.33899 -22.16847,22.33899 H 741.33697 c -12.24116,0 -22.16848,10.61101 -22.16848,22.33898 v 303.60077 c 0,12.35625 9.92732,22.33899 22.16848,22.33899 h 217.52819 c 12.26193,0 22.16847,-9.98274 22.16847,-22.33899 V 804.80607 c 0,-11.72796 9.90654,-22.33898 22.16847,-22.33898 12.262,0 22.1685,10.61102 22.1685,22.33898 v 139.64524 c 0,36.99895 -29.7889,67.01699 -66.50544,67.01699 H 741.33697 c -36.7304,0 -66.50543,-30.01804 -66.50543,-67.01699 V 640.85054 c 0,-36.99894 29.77503,-67.01696 66.50543,-67.01696 z"
       id="path2"
       sodipodi:nodetypes="sssssssssssssssssss"
       style="fill:#7759c2;fill-opacity:1;stroke:#ffffff;stroke-width:60;stroke-dasharray:none;stroke-opacity:0.999928;paint-order:stroke markers fill" /><g
       id="g5"
       transform="matrix(0.69276492,0,0,0.69809329,324.70528,316.14884)"
       style="fill:#7759c2;fill-opacity:1;stroke:#ffffff;stroke-width:86.27829907;stroke-dasharray:none;paint-order:stroke markers fill;stroke-opacity:0.99992806"><path
         id="path3"
         d="m 647.40414,492.33709 c -17.69997,0 -32,15.23006 -32,32 0,18.59994 14.30003,32 32,32 h 140 c 17.69994,0 32,-13.40006 32,-32 0,-16.76994 -14.30006,-32 -32,-32 z"
         sodipodi:nodetypes="sssssss"
         style="fill:#7759c2;fill-opacity:1;stroke:#ffffff;stroke-width:86.27829907;stroke-dasharray:none;paint-order:stroke markers fill;stroke-opacity:0.99992806" /><path
         id="path4"
         d="m 647.40414,650.57654 c -17.69997,0 -32,15.23006 -32,32 0,18.59994 14.30003,32 32,32 h 222 c 17.69994,0 32,-13.40006 32,-32 0,-16.76994 -14.30006,-32 -32,-32 z"
         sodipodi:nodetypes="sssssss"
         style="fill:#7759c2;fill-opacity:1;stroke:#ffffff;stroke-width:86.27829907;stroke-dasharray:none;paint-order:stroke markers fill;stroke-opacity:0.99992806" /><path
         id="path5"
         d="m 647.40414,808.81599 c -17.69997,0 -32,15.23006 -32,32 0,18.59994 14.30003,32 32,32 h 222 c 17.69994,0 32,-13.40006 32,-32 0,-16.76994 -14.30006,-32 -32,-32 z"
         sodipodi:nodetypes="sssssss"
         style="fill:#7759c2;fill-opacity:1;stroke:#ffffff;stroke-width:86.27829907;stroke-dasharray:none;paint-order:stroke markers fill;stroke-opacity:0.99992806" /></g><path
       d="m 1003.1047,600.03187 c 18.5759,10.79015 24.9339,34.7011 14.2006,53.40504 l -14.6778,25.71699 -83.14554,-48.36188 14.75192,-25.70812 c 10.73266,-18.70632 34.4209,-25.10239 52.99744,-14.30987 z m -176.63257,193.17595 81.94261,-143.07966 83.14193,48.34847 -82.02028,143.05726 c -2.97021,5.28282 -7.16412,9.73973 -12.2161,13.12743 l -54.11407,36.00382 c -5.85497,3.60453 -12.00421,3.6749 -17.66264,-0.0731 -5.2867,-2.61981 -8.46221,-8.62823 -8.13055,-14.93313 l 3.88522,-65.22655 c 0.38544,-6.10266 2.11882,-11.99108 5.17388,-17.22455 z"
       id="path1"
       sodipodi:nodetypes="ccccccccccccccccc"
       style="fill:#7759c2;fill-opacity:1;stroke:#ffffff;stroke-width:60;stroke-dasharray:none;paint-order:stroke markers fill;stroke-opacity:0.99992806" /></g></svg>
